<?xml version="1.0" encoding="utf-8"?>
<!-- Generator: Adobe Illustrator 18.0.0, SVG Export Plug-In . SVG Version: 6.00 Build 0)  -->
<!DOCTYPE svg PUBLIC "-//W3C//DTD SVG 1.1//EN" "http://www.w3.org/Graphics/SVG/1.1/DTD/svg11.dtd">
<svg version="1.1" id="Layer_1" xmlns="http://www.w3.org/2000/svg" xmlns:xlink="http://www.w3.org/1999/xlink" x="0px" y="0px"
	 width="450px" height="83px" viewBox="0 0 450 83" enable-background="new 0 0 450 83" xml:space="preserve">
<g>
	<g id="cores_antigas" display="none">
		<path display="inline" fill="#FFFFFF" d="M405.5,22.6c1.6,0,2.8,1.3,2.8,2.8v13.2c0,1.6-1.3,2.8-2.8,2.8h-13.2
			c-1.6,0-2.8-1.3-2.8-2.8V25.4c0-1.6,1.3-2.8,2.8-2.8H405.5z"/>
		<path display="inline" fill="#FFFFFF" d="M405.5,43.4c1.6,0,2.8,1.3,2.8,2.8v13.2c0,1.6-1.3,2.8-2.8,2.8h-13.2
			c-1.6,0-2.8-1.3-2.8-2.8V46.2c0-1.6,1.3-2.8,2.8-2.8H405.5z"/>
		<path display="inline" fill="#FFFFFF" d="M405.5,64.2c1.6,0,2.8,1.3,2.8,2.8v13.2c0,1.6-1.3,2.8-2.8,2.8h-13.2
			c-1.6,0-2.8-1.3-2.8-2.8V67c0-1.6,1.3-2.8,2.8-2.8H405.5z"/>
		<path display="inline" fill="#FFFFFF" d="M426.3,1.8c1.6,0,2.8,1.3,2.8,2.8v13.2c0,1.6-1.3,2.8-2.8,2.8H413
			c-1.6,0-2.8-1.3-2.8-2.8V4.6c0-1.6,1.3-2.8,2.8-2.8H426.3z"/>
		<path display="inline" fill="#FFFFFF" d="M426.3,22.6c1.6,0,2.8,1.3,2.8,2.8v13.2c0,1.6-1.3,2.8-2.8,2.8H413
			c-1.6,0-2.8-1.3-2.8-2.8V25.4c0-1.6,1.3-2.8,2.8-2.8H426.3z"/>
		<path display="inline" fill="#FFFFFF" d="M426.3,43.4c1.6,0,2.8,1.3,2.8,2.8v13.2c0,1.6-1.3,2.8-2.8,2.8H413
			c-1.6,0-2.8-1.3-2.8-2.8V46.2c0-1.6,1.3-2.8,2.8-2.8H426.3z"/>
		<path display="inline" fill="#FFFFFF" d="M447.1,43.4c1.6,0,2.8,1.3,2.8,2.8v13.2c0,1.6-1.3,2.8-2.8,2.8h-13.2
			c-1.6,0-2.8-1.3-2.8-2.8V46.2c0-1.6,1.3-2.8,2.8-2.8H447.1z"/>
		<path display="inline" fill="#FFFFFF" d="M426.3,64.2c1.6,0,2.8,1.3,2.8,2.8v13.2c0,1.6-1.3,2.8-2.8,2.8H413
			c-1.6,0-2.8-1.3-2.8-2.8V67c0-1.6,1.3-2.8,2.8-2.8H426.3z"/>
		<path display="inline" fill="#FFFFFF" d="M447.1,1.8c1.6,0,2.8,1.3,2.8,2.8v13.2c0,1.6-1.3,2.8-2.8,2.8h-13.2
			c-1.6,0-2.8-1.3-2.8-2.8V4.6c0-1.6,1.3-2.8,2.8-2.8H447.1z"/>
		<path display="inline" fill="#FFFFFF" d="M410.2,11.7c0,6-4.9,10.9-10.9,10.9c-6,0-10.9-4.9-10.9-10.9c0-6,4.9-10.9,10.9-10.9
			C405.3,0.8,410.2,5.7,410.2,11.7"/>
	</g>
	<g>
		<path fill="#FFFFFF" d="M427.9,17.2c0,1-0.8,1.7-1.7,1.7H412c-0.9,0-1.7-0.8-1.7-1.7V3c0-0.9,0.8-1.7,1.7-1.7h14.1
			c0.9,0,1.7,0.8,1.7,1.7V17.2L427.9,17.2z"/>
		<path fill="#FFFFFF" d="M448.9,17.2c0,1-0.8,1.7-1.7,1.7h-14.1c-0.9,0-1.7-0.8-1.7-1.7V3c0-0.9,0.8-1.7,1.7-1.7h14.1
			c0.9,0,1.7,0.8,1.7,1.7V17.2L448.9,17.2z"/>
		<path fill="#FFFFFF" d="M448.9,59.6c0,1-0.8,1.7-1.7,1.7h-14.1c-0.9,0-1.7-0.8-1.7-1.7V45.4c0-1,0.8-1.7,1.7-1.7h14.1
			c0.9,0,1.7,0.8,1.7,1.7V59.6L448.9,59.6z"/>
		<path fill="#FFFFFF" d="M406.8,38.4c0,1-0.8,1.7-1.7,1.7H391c-0.9,0-1.7-0.8-1.7-1.7V24.2c0-1,0.8-1.7,1.7-1.7h14.1
			c0.9,0,1.7,0.8,1.7,1.7V38.4L406.8,38.4z"/>
		<path fill="#FFFFFF" d="M427.9,38.4c0,1-0.8,1.7-1.7,1.7H412c-0.9,0-1.7-0.8-1.7-1.7V24.2c0-1,0.8-1.7,1.7-1.7h14.1
			c0.9,0,1.7,0.8,1.7,1.7V38.4L427.9,38.4z"/>
		<path fill="#FFFFFF" d="M406.8,59.6c0,1-0.8,1.7-1.7,1.7H391c-0.9,0-1.7-0.8-1.7-1.7V45.4c0-1,0.8-1.7,1.7-1.7h14.1
			c0.9,0,1.7,0.8,1.7,1.7V59.6L406.8,59.6z"/>
		<path fill="#FFFFFF" d="M427.9,59.6c0,1-0.8,1.7-1.7,1.7H412c-0.9,0-1.7-0.8-1.7-1.7V45.4c0-1,0.8-1.7,1.7-1.7h14.1
			c0.9,0,1.7,0.8,1.7,1.7V59.6L427.9,59.6z"/>
		<path fill="#FFFFFF" d="M406.8,80.9c0,1-0.8,1.7-1.7,1.7H391c-0.9,0-1.7-0.8-1.7-1.7V66.6c0-1,0.8-1.7,1.7-1.7h14.1
			c0.9,0,1.7,0.8,1.7,1.7V80.9L406.8,80.9z"/>
		<path fill="#FFFFFF" d="M427.9,80.9c0,1-0.8,1.7-1.7,1.7H412c-0.9,0-1.7-0.8-1.7-1.7V66.6c0-1,0.8-1.7,1.7-1.7h14.1
			c0.9,0,1.7,0.8,1.7,1.7V80.9L427.9,80.9z"/>
		<path fill="#FFFFFF" d="M407.7,10.1c0,5.4-4.3,9.7-9.6,9.7c-5.3,0-9.6-4.4-9.6-9.7c0-5.4,4.3-9.7,9.6-9.7
			C403.4,0.4,407.7,4.7,407.7,10.1L407.7,10.1z"/>
	</g>
	<g>
		<path fill="#FFFFFF" d="M23.5,81.7L0.5,1.2h9.8l11,39.6c3,10.9,5.7,20.6,7.5,30.1h0.2c2-9.3,4.9-19.5,8.1-30L49.1,1.2h9.7
			L33.6,81.7H23.5z"/>
		<path fill="#FFFFFF" d="M75.6,1.2v80.4h-9.1V1.2H75.6z"/>
		<path fill="#FFFFFF" d="M91.5,2.3c4.6-1.1,11.2-1.7,17.5-1.7c9.7,0,16,2,20.4,6.6c3.6,3.6,5.5,9.1,5.5,15.3
			c0,10.6-5.9,17.7-13.3,20.5v0.4c5.4,2.1,8.7,7.9,10.4,16.2c2.3,11.2,4,19,5.4,22.1H128c-1.2-2.3-2.7-9.2-4.7-19.2
			c-2.1-11.1-5.9-15.3-14.1-15.6h-8.6v34.8h-9.1V2.3z M100.6,38.9h9.3c9.7,0,15.9-6.1,15.9-15.3c0-10.4-6.6-14.9-16.2-15
			c-4.4,0-7.5,0.5-9,1V38.9z"/>
		<path fill="#FFFFFF" d="M162.2,10.1h-21.5V1.2H193v8.8h-21.6v71.6h-9.2V10.1z"/>
		<path fill="#FFFFFF" d="M209.9,1.2v47.6c0,18,7,25.7,16.4,25.7c10.5,0,17.2-7.9,17.2-25.7V1.2h9.2v46.9
			c0,24.7-11.4,34.8-26.7,34.8c-14.4,0-25.3-9.4-25.3-34.4V1.2H209.9z"/>
		<path fill="#FFFFFF" d="M276.4,56.4l-7.3,25.3h-9.4l24-80.4h11l24.1,80.4H309l-7.5-25.3H276.4z M299.6,48.3l-6.9-23.2
			c-1.6-5.3-2.6-10-3.7-14.7h-0.2c-1,4.8-2.2,9.7-3.6,14.6l-6.9,23.3H299.6z"/>
		<path fill="#FFFFFF" d="M329.1,1.2h9.1V73h30.2v8.7h-39.3V1.2z"/>
	</g>
</g>
</svg>
